<svg xmlns="http://www.w3.org/2000/svg" viewBox="0 0 151.89 140"><defs><style>.cls-1{isolation:isolate;}.cls-2{opacity:0.54;}.cls-3{fill:#ddd2f3;}.cls-4{fill:#b8abd6;}.cls-5{opacity:0.15;mix-blend-mode:multiply;}.cls-6,.cls-7{fill:#3d3d3d;}.cls-16,.cls-7{opacity:0.41;}.cls-8{fill:#8aa9fc;}.cls-9{fill:#251a51;}.cls-10{fill:#f6aea6;}.cls-11{fill:#55318c;}.cls-12{fill:#edc483;}.cls-13{fill:#6338a1;}.cls-14{fill:#968abc;}.cls-15,.cls-16{fill:#fff;}.cls-17{fill:#d6b0ea;}.cls-18{fill:#1a3066;}.cls-19{opacity:0.28;}.cls-20{opacity:0.12;}.cls-21{fill:#5944d8;}.cls-22{fill:#f9f2fc;}.cls-23{fill:#6e3281;}.cls-24{fill:#e3707f;}.cls-25{fill:#e8947e;}</style></defs><title>empty_card</title><g class="cls-1"><g id="Layer_2" data-name="Layer 2"><g id="Objects"><g class="cls-2"><path class="cls-3" d="M38.59,130.49C20,124.21,3.84,108.62.54,89.27S9.44,48.1,28.62,43.9c9.07-2,18.86-.21,27.53-3.54,16.34-6.28,21.9-27.54,37-36.41,14.55-8.54,34.49-2.38,45.33,10.55s14,30.77,13.33,47.63c-1,24.77-11.5,51.48-34,61.95-18.93,8.82-59,11.33-79.26,6.42"/></g><path class="cls-4" d="M16.73,126.83c4.11,6.54,12.59,9,20.31,8.84s15.27-2.36,23-2.81c12.22-.71,24.2,3,36.21,5.36s25.14,3.19,35.86-2.73c2.62-1.45,5.15-3.43,6.22-6.23s.1-6.52-2.66-7.68a9.25,9.25,0,0,0-3.42-.5L55,119.64c-13.1-.24-27.54,0-37.37,8.65"/><g class="cls-5"><path class="cls-6" d="M126.57,49.54c-1.57,1.51-2.17,3.86-.67,5.67a4.4,4.4,0,0,0,5.9.71c4.25-3.28-.18-9.34-4.77-8.09a.76.76,0,0,0,.2,1.49,6.05,6.05,0,0,1,3.85,1.07,2.79,2.79,0,0,1,.23,3.88c-2.5,3.08-6.85-1.45-4.22-4.21a.37.37,0,0,0-.53-.53Z"/><path class="cls-6" d="M24.19,34.61A5.11,5.11,0,0,0,17,39.47c.05,1.35.6,2.9-.27,3.94-.67.81-1.85.88-2.81,1.32a4,4,0,0,0-1.89,5c.45,1,1.33,1.88,1.16,2.95a2.38,2.38,0,0,1-1.26,1.58c-.61.35-1.28.54-1.91.85A6.84,6.84,0,0,0,6.4,61.4a8.77,8.77,0,0,0,3.47,6.52A12.31,12.31,0,0,0,17,70.33a10.44,10.44,0,0,0,7.15-2.15,11.75,11.75,0,0,0,3.11-4.75,23.76,23.76,0,0,0,1.57-10.7c-.32-3.76-1.54-7.4-1.8-11.17a24.7,24.7,0,0,0-.35-3.77,4.8,4.8,0,0,0-2-3.11"/><path class="cls-6" d="M23.61,35.1a11.25,11.25,0,0,1,7.58-6,8.21,8.21,0,0,1,6,.76A5.43,5.43,0,0,1,39.86,35a17.6,17.6,0,0,1-1.28,3.57,3.76,3.76,0,0,0,.23,3.63c.72.88,2,1.1,2.95,1.67a4.42,4.42,0,0,1-.45,7.88,5.31,5.31,0,0,1,4.56,6.49,8.26,8.26,0,0,1-4,4.8,17.64,17.64,0,0,1-8.43,2.6c-3.15.14-6.64-.79-8.36-3.44-1.13-1.74-1.3-3.91-1.42-6-.38-6.24-.64-12.49-.9-18.74a10.83,10.83,0,0,1,.15-3"/><path class="cls-6" d="M34.22,63.3,62.48,73.89l-2.7-11.41,7.35-1.87S75,82.92,69.54,83.52c-9.61,1-24.15-2.76-24.15-2.76Z"/><path class="cls-6" d="M31.75,112S65.89,74.73,88.93,82.86,121.71,129,121.71,129l-18.36-.3S88.86,100,81.78,101.1s-28.92,28.4-28.92,28.4Z"/><path class="cls-6" d="M42.55,89.37,44,111.23c-7.36,9-33-2.65-33-2.65l-.3-9.14-.59-21.77c.59-8.67,8.64-12.93,8.64-12.93a28.25,28.25,0,0,1,13-2.38c4.78.24,6,2.52,7.92,6.88C41.23,72.77,45.54,78.5,42.55,89.37Z"/><path class="cls-6" d="M15.78,112.7s-3.92,15.95,8,18.46,55.86-3.37,67.3-2.36,44,2.9,44,2.9l2.38-18.94s-50.63-2.43-56.35-1S15.78,112.7,15.78,112.7Z"/><path class="cls-6" d="M21.5,84.82S17.92,105.92,23,105.4c16.61-1.71,26.5-1.94,26.5-1.94l2.75,5.72c.06,1-31.46,10-36.52,7-3.58-2.11-9.27-7.78-6.69-24.74l.61-5.68Z"/><polygon class="cls-6" points="36.49 115.11 36.45 113.7 57.3 110.76 62.84 91.4 85.93 90.84 79.7 111.79 36.49 115.11"/><circle class="cls-6" cx="72.26" cy="100.62" r="1.71" transform="translate(-2.42 1.79) rotate(-1.39)"/><circle class="cls-7" cx="72.26" cy="100.62" r="2.39" transform="translate(-2.42 1.79) rotate(-1.39)"/><path class="cls-6" d="M12.36,70.82s-3.87,3.72-4.74,17.8l15-1.66S25.12,63,12.36,70.82Z"/><path class="cls-6" d="M122.44,28.49s5.32,11.94,6.8,11.31,15.21-9.14,15.21-9.14-5.63-10.69-6.8-11.31S122.44,28.49,122.44,28.49Z"/><path class="cls-6" d="M137.66,19.35a21.49,21.49,0,0,1-1,3.21c-.69,2-1.67,4.65-2.78,7.61l-.08.21-.08.2-.21,0c-3.08-.5-5.84-1-7.84-1.35a20.76,20.76,0,0,1-3.21-.71,20.78,20.78,0,0,1,3.27.35c2,.28,4.79.7,7.87,1.2l-.29.17.08-.21c1.12-3,2.15-5.64,2.93-7.56A21.5,21.5,0,0,1,137.66,19.35Z"/><ellipse class="cls-6" cx="128.67" cy="34.09" rx="4.47" ry="0.26" transform="translate(61.95 149.27) rotate(-74.76)"/><ellipse class="cls-6" cx="139.31" cy="27.61" rx="0.26" ry="4.29" transform="translate(90.24 160.88) rotate(-81)"/><path class="cls-6" d="M19.87,41.31l.34,4.47s-3.8.51-2.72,4,3.68,1.95,3.68,1.95.65,8.88,9.75,6.07c7.24-2.24,6.8-11.62,5.88-19.61a5.35,5.35,0,0,0-6.35-4.63L25,34.6A6.35,6.35,0,0,0,19.87,41.31Z"/><path class="cls-6" d="M20.21,49.49l2.45,13.07A5.24,5.24,0,0,0,29,66.7h0a5.24,5.24,0,0,0,3.95-6l-1.33-7.49Z"/><path class="cls-6" d="M30.28,49.64s.11.12.28.14.41-.15.47-.51a4.61,4.61,0,0,0,0-1.35l-.13-1.74a19.56,19.56,0,0,1,0-4.5,19.57,19.57,0,0,1,.54,4.46l.09,1.74a4.08,4.08,0,0,1-.11,1.49c-.12.45-.59.73-.88.6S30.26,49.64,30.28,49.64Z"/><path class="cls-6" d="M33.23,56.86s-.32.45-1.07.88a6.9,6.9,0,0,1-6.49.14c-.77-.4-1.14-.78-1.1-.83a11.47,11.47,0,0,0,4.36,1.05A11.47,11.47,0,0,0,33.23,56.86Z"/><path class="cls-6" d="M31.45,51.47c.05,0-.07.33-.47.61a2.13,2.13,0,0,1-3.21-1c-.16-.47-.09-.77,0-.77s.14.26.36.61a2.08,2.08,0,0,0,2.7.87C31.18,51.61,31.39,51.42,31.45,51.47Z"/><path class="cls-6" d="M19.93,50.19c0,.06-.22.17-.62.05a.87.87,0,0,1-.55-.52.78.78,0,0,1,0-.5.66.66,0,0,1,.4-.43.64.64,0,0,1,.79.24l-.44.23c-.29-.73-.43-1.29-.32-1.34s.43.43.78,1.14l-.44.23a.18.18,0,0,0-.17,0c-.1,0-.14.14-.11.3a.56.56,0,0,0,.25.34C19.71,50.07,19.93,50.12,19.93,50.19Z"/><ellipse class="cls-6" cx="33.76" cy="43.21" rx="0.26" ry="0.73" transform="translate(-8.7 8.51) rotate(-12.74)"/><ellipse class="cls-6" cx="26.02" cy="43.92" rx="0.26" ry="0.74" transform="translate(-10.81 8.57) rotate(-15.53)"/><path class="cls-6" d="M26.93,41.39c0,.14-.45.14-.91.26s-.81.32-.92.22.17-.56.79-.72S27,41.26,26.93,41.39Z"/><path class="cls-6" d="M34.8,40.14c-.06.14-.51.07-1,.12s-1,.18-1,.06.32-.52,1-.58S34.86,40,34.8,40.14Z"/><path class="cls-6" d="M20.21,45.78c2.54-2.48,3.29-6.6,4-10.08a8.89,8.89,0,0,0,8.3,1.08,13.38,13.38,0,0,0,3,2.58,1.32,1.32,0,0,0,1,.29c.43-.13.62-.62.72-1.05a7.47,7.47,0,0,0-.15-4.21,5.07,5.07,0,0,0-2.83-3,7.4,7.4,0,0,0-4.49.07,25,25,0,0,0-6.34,2.62,10.25,10.25,0,0,0-4.63,4.74c-.82,2.1-.82,6.17,1.17,7.23"/><path class="cls-6" d="M30.58,52a1.09,1.09,0,1,1-2-.42c.4-.6.93-1,1.23-.9S30.46,51.25,30.58,52Z"/><path class="cls-6" d="M27.41,47.81c.13.7-.74,1.45-2,1.51S23.3,48.71,23.37,48s.94-1.23,2-1.28S27.29,47.1,27.41,47.81Z"/><path class="cls-6" d="M37,47c.14.7-.62,1.45-1.72,1.51s-1.94-.61-1.87-1.32a1.69,1.69,0,0,1,1.73-1.28A1.69,1.69,0,0,1,37,47Z"/><path class="cls-6" d="M20.11,57.61a12.64,12.64,0,0,1-.32-3.2,12.64,12.64,0,0,1,0-3.21,8.47,8.47,0,0,1,.53,3.19A8.47,8.47,0,0,1,20.11,57.61Z"/><path class="cls-6" d="M35.21,63.2c-2.46-1,16.45,6,16.45,6L49.74,82.19l-7.19-2.36Z"/><path class="cls-6" d="M24,33.94a3.93,3.93,0,0,0,.53-3.09,2.16,2.16,0,0,0-1.75-1.76,1.92,1.92,0,0,0-1.36.56A2.8,2.8,0,0,0,24,34.39"/><path class="cls-6" d="M137,116.8s6.15-8.82,5.4-5.48-7,18.18-7,18.18Z"/><path class="cls-6" d="M47.72,103.47s8.13-2.55,7.85-1.71-1.66.87-3,2.22c0,0,9.09.1,8.65.85s-6.35.94-6.39,1.06,6.47.29,6.32,1-6.19.52-6.19.52,5.6.6,5.49,1.34-5.28.21-5.28.21,4.32.49,4.21,1.17c-.07.41-12.66.51-12.69.81s1.07-7.45,1.07-7.45"/><path class="cls-6" d="M60.31,63.2s-4.94-6.9-4.06-6.9,1.34,1.3,3,2.19c0,0-2.73-8.63-1.88-8.45s2.86,5.72,3,5.71-1.74-6.21-1-6.29,2.42,5.7,2.42,5.7-1.18-5.49-.43-5.61,1.84,4.93,1.84,4.93-.87-4.25-.2-4.35c.41-.06,4.14,10.47,4.14,10.47s-6.82,2.59-6.82,2.59"/><path class="cls-6" d="M14.79,82.19c.05,0,.24.32.25,1a1.33,1.33,0,0,1-.53,1.06,1,1,0,0,1-.77.18,1.31,1.31,0,0,1-.67-.43c-.32-.38-.53-.6-.86-.64a1,1,0,0,0-.78.22c-.38.35-.37.76-.45.75s-.25-.43.18-1a1.28,1.28,0,0,1,1.11-.45,1.34,1.34,0,0,1,.69.26,3.9,3.9,0,0,1,.5.5c.52.71,1.2,0,1.23-.49S14.7,82.19,14.79,82.19Z"/><path class="cls-6" d="M19.23,78.35s.15-.37.7-.72a1.33,1.33,0,0,1,1.18-.1,1,1,0,0,1,.56.57,1.31,1.31,0,0,1,0,.8,1.42,1.42,0,0,0-.1,1.07,1,1,0,0,0,.6.55c.5.14.84-.08.88,0s-.24.44-1,.37a1.28,1.28,0,0,1-1-.71,1.34,1.34,0,0,1-.14-.73,3.89,3.89,0,0,1,.17-.68c.33-.81-.61-1-1.06-.8S19.28,78.42,19.23,78.35Z"/><path class="cls-6" d="M18.93,68.81s.15-.37.7-.72a1.33,1.33,0,0,1,1.18-.1,1,1,0,0,1,.56.57,1.31,1.31,0,0,1,0,.8,1.42,1.42,0,0,0-.1,1.07,1,1,0,0,0,.6.55c.5.14.84-.08.88,0s-.24.44-1,.37a1.28,1.28,0,0,1-1-.71,1.34,1.34,0,0,1-.14-.73,3.89,3.89,0,0,1,.17-.68c.33-.81-.61-1-1.06-.8S19,68.88,18.93,68.81Z"/><path class="cls-6" d="M28.4,81.24s-.38-.12-.78-.64a1.33,1.33,0,0,1-.2-1.17,1,1,0,0,1,.52-.6,1.31,1.31,0,0,1,.8-.05,1.42,1.42,0,0,0,1.07,0,1,1,0,0,0,.5-.64c.1-.51-.15-.83-.08-.87s.46.2.45.92a1.28,1.28,0,0,1-.63,1,1.34,1.34,0,0,1-.71.2,3.9,3.9,0,0,1-.69-.11c-.83-.26-1,.69-.7,1.13S28.46,81.19,28.4,81.24Z"/><path class="cls-6" d="M34.85,91.23s-.18.36-.75.66a1.33,1.33,0,0,1-1.19,0,1,1,0,0,1-.51-.61,1.31,1.31,0,0,1,.08-.8,1.42,1.42,0,0,0,.17-1.06,1,1,0,0,0-.56-.6c-.49-.18-.84,0-.87-.06s.27-.42,1-.3a1.28,1.28,0,0,1,.9.78,1.34,1.34,0,0,1,.08.74,3.9,3.9,0,0,1-.22.67c-.39.78.53,1.07,1,.87S34.81,91.15,34.85,91.23Z"/><path class="cls-6" d="M42.45,75.48s-.18.36-.75.66a1.33,1.33,0,0,1-1.19,0,1,1,0,0,1-.51-.61,1.31,1.31,0,0,1,.08-.8,1.42,1.42,0,0,0,.17-1.06,1,1,0,0,0-.56-.6c-.49-.18-.84,0-.87-.06s.27-.42,1-.3a1.28,1.28,0,0,1,.9.78,1.34,1.34,0,0,1,.08.74,3.89,3.89,0,0,1-.22.67c-.39.78.53,1.07,1,.87S42.41,75.4,42.45,75.48Z"/><path class="cls-6" d="M47.64,73.08s.4,0,.88.48a1.33,1.33,0,0,1,.41,1.11,1,1,0,0,1-.4.69,1.31,1.31,0,0,1-.78.2,1.42,1.42,0,0,0-1.05.19,1,1,0,0,0-.37.73c0,.52.3.79.24.84s-.49-.11-.61-.82a1.28,1.28,0,0,1,.43-1.11,1.34,1.34,0,0,1,.66-.33,3.89,3.89,0,0,1,.7,0c.87.11.83-.86.48-1.24S47.58,73.15,47.64,73.08Z"/><path class="cls-6" d="M26.66,99.37s-.18.36-.75.66a1.33,1.33,0,0,1-1.19,0,1,1,0,0,1-.51-.61,1.31,1.31,0,0,1,.08-.8,1.42,1.42,0,0,0,.17-1.06,1,1,0,0,0-.56-.6c-.49-.18-.84,0-.87-.06s.27-.42,1-.3a1.28,1.28,0,0,1,.9.78,1.34,1.34,0,0,1,.08.74,3.9,3.9,0,0,1-.22.67c-.39.78.53,1.07,1,.87S26.61,99.3,26.66,99.37Z"/><path class="cls-6" d="M37.91,84.21s-.37-.16-.7-.72a1.33,1.33,0,0,1-.06-1.19,1,1,0,0,1,.58-.54,1.31,1.31,0,0,1,.8,0,1.42,1.42,0,0,0,1.06.13,1,1,0,0,0,.57-.58c.16-.49-.05-.84,0-.87s.43.25.34,1a1.28,1.28,0,0,1-.74.94,1.34,1.34,0,0,1-.73.11,3.9,3.9,0,0,1-.68-.19c-.8-.36-1,.57-.83,1S38,84.17,37.91,84.21Z"/><path class="cls-6" d="M39.93,92.36s-.37-.16-.7-.72a1.33,1.33,0,0,1-.06-1.19,1,1,0,0,1,.58-.54,1.31,1.31,0,0,1,.8,0,1.42,1.42,0,0,0,1.06.13,1,1,0,0,0,.57-.58c.16-.49-.05-.84,0-.87s.43.25.34,1a1.28,1.28,0,0,1-.74.94,1.34,1.34,0,0,1-.73.11,3.89,3.89,0,0,1-.68-.19c-.8-.36-1,.57-.83,1S40,92.31,39.93,92.36Z"/><path class="cls-6" d="M23.65,88.88c-.05,0-.16-.37,0-1a1.33,1.33,0,0,1,.75-.92,1,1,0,0,1,.8,0,1.31,1.31,0,0,1,.56.57c.23.44.39.7.7.81a1,1,0,0,0,.81,0c.45-.26.53-.66.6-.63s.15.48-.4.94a1.28,1.28,0,0,1-1.18.19,1.34,1.34,0,0,1-.62-.41,3.9,3.9,0,0,1-.37-.59c-.35-.8-1.16-.28-1.31.21S23.73,88.9,23.65,88.88Z"/><path class="cls-6" d="M38.35,98.94c-.05,0-.16-.37,0-1a1.33,1.33,0,0,1,.75-.92,1,1,0,0,1,.8,0,1.31,1.31,0,0,1,.56.57c.23.44.39.7.7.81a1,1,0,0,0,.81,0c.45-.26.53-.66.6-.63s.15.48-.4.94a1.28,1.28,0,0,1-1.18.19,1.34,1.34,0,0,1-.62-.41,3.89,3.89,0,0,1-.37-.59c-.35-.8-1.16-.28-1.31.21S38.43,98.95,38.35,98.94Z"/><path class="cls-6" d="M37.92,68.48c-.05,0-.16-.37,0-1a1.33,1.33,0,0,1,.75-.92,1,1,0,0,1,.8,0,1.31,1.31,0,0,1,.56.57c.23.44.39.7.7.81a1,1,0,0,0,.81,0c.45-.26.53-.66.6-.63s.15.48-.4.94a1.28,1.28,0,0,1-1.18.19,1.34,1.34,0,0,1-.62-.41,3.9,3.9,0,0,1-.37-.59c-.35-.8-1.16-.28-1.31.21S38,68.5,37.92,68.48Z"/><path class="cls-6" d="M33.12,103s-.4,0-.93-.37a1.33,1.33,0,0,1-.55-1.05,1,1,0,0,1,.31-.73,1.31,1.31,0,0,1,.75-.29c.49,0,.8-.08,1-.32a1,1,0,0,0,.28-.77c-.06-.52-.39-.74-.34-.8s.5.05.71.74a1.28,1.28,0,0,1-.29,1.16,1.34,1.34,0,0,1-.62.41,3.9,3.9,0,0,1-.69.11c-.88,0-.72,1-.33,1.29S33.17,102.91,33.12,103Z"/><path class="cls-6" d="M15.68,73.08s.35.2.62.79a1.33,1.33,0,0,1-.06,1.19,1,1,0,0,1-.63.48,1.31,1.31,0,0,1-.79-.12c-.45-.21-.73-.33-1-.23a1,1,0,0,0-.63.52c-.21.48,0,.84-.11.87s-.41-.29-.24-1a1.28,1.28,0,0,1,.83-.86,1.34,1.34,0,0,1,.74,0,3.89,3.89,0,0,1,.65.25c.76.44,1.1-.47.93-.95S15.6,73.12,15.68,73.08Z"/><path class="cls-6" d="M32.51,70.07s.35.2.62.79A1.33,1.33,0,0,1,33.08,72a1,1,0,0,1-.63.48,1.31,1.31,0,0,1-.79-.12c-.45-.21-.73-.33-1-.23a1,1,0,0,0-.63.52c-.21.48,0,.84-.11.87s-.41-.29-.24-1a1.28,1.28,0,0,1,.83-.86,1.34,1.34,0,0,1,.74,0,3.89,3.89,0,0,1,.65.25c.76.44,1.1-.47.93-.95S32.44,70.11,32.51,70.07Z"/><path class="cls-6" d="M22.14,87.78a3.94,3.94,0,0,1,0-1c0-.66.12-1.61.22-2.79.21-2.35.54-5.6.93-9.18a10.41,10.41,0,0,0,0-2.56,4.48,4.48,0,0,0-.88-2.12A5.93,5.93,0,0,0,19.1,68a10.06,10.06,0,0,0-2.73-.24,5.66,5.66,0,0,1-1,0,3,3,0,0,1,1-.23,8.77,8.77,0,0,1,2.83.08,6.16,6.16,0,0,1,3.63,2.14,4.9,4.9,0,0,1,1,2.34,10.56,10.56,0,0,1,0,2.69c-.39,3.59-.77,6.82-1.08,9.16-.15,1.17-.28,2.12-.39,2.77A3.94,3.94,0,0,1,22.14,87.78Z"/><ellipse class="cls-6" cx="15.14" cy="87.78" rx="7.7" ry="0.26" transform="translate(-9.15 2.08) rotate(-6.04)"/><path class="cls-6" d="M43.63,85.27a20,20,0,0,0-.29-6.62,20,20,0,0,0-2.91-6,5.08,5.08,0,0,1,1.37,1.45,13,13,0,0,1,2.34,9.2A5.08,5.08,0,0,1,43.63,85.27Z"/><path class="cls-6" d="M83.66,85.52a5.78,5.78,0,0,1,.58-2.43c1-1.51,2.32-1.13,3.63-.47a4.48,4.48,0,0,0,4.05.45c2.29-1,3.31-4.38,1.17-6-.69-.53-1.4.34-1.3,1,.14.92.6,1.94-.2,2.74-1.06,1.06-2.3.17-3.36-.3a4.38,4.38,0,0,0-3.52-.16c-2,.82-3.5,3.56-1.89,5.41a.49.49,0,0,0,.82-.22Z"/><path class="cls-6" d="M89,46.11c.21,1.39,1.66,4.33,3.18,4.73.81.21,1.41-.32,2-.75,1.14-.79,2.27-1.59,3.4-2.4A1,1,0,0,0,98,46.38l-3-4.62a1,1,0,0,0-1.32-.35,40.17,40.17,0,0,0-3.72,2.72c-.78.7.22,1.89,1.09,1.41a38.18,38.18,0,0,0,3.61-2.47l-1.32-.35,3,4.62L96.66,46l-2,1.45c-.34.24-1.73,1.51-2.09,1.43s-1.14-1.36-1.42-1.69a7.79,7.79,0,0,0-1.55-1.53c-.3-.2-.59.13-.55.42Z"/><path class="cls-6" d="M74.86,60.46c-1.57,1.51-2.17,3.86-.67,5.67a4.4,4.4,0,0,0,5.9.71c4.25-3.28-.18-9.34-4.77-8.09a.76.76,0,0,0,.2,1.49,6.05,6.05,0,0,1,3.85,1.07,2.79,2.79,0,0,1,.23,3.88c-2.5,3.08-6.85-1.45-4.22-4.21a.37.37,0,0,0-.53-.53Z"/><path class="cls-6" d="M111,74.42c-.54,2.81-1,5.63-1.43,8.47a.86.86,0,0,0,1,1c2.66-.39,5.31-.74,7.94-1.32a.79.79,0,0,0,.47-1.16c-1.49-2.62-3.38-6.27-6.18-7.7-.71-.36-1.71.42-1.18,1.18a38.51,38.51,0,0,0,3,3.2,22.52,22.52,0,0,1,3,4.11l.68-1.18c-2.75.27-5.46.77-8.18,1.24l1.07.82c.33-2.85.62-5.69.83-8.55a.54.54,0,0,0-1.06-.14Z"/><path class="cls-6" d="M98.78,69.2A50,50,0,0,0,100,60.65c0-.88-1.4-1.1-1.56-.21a49.9,49.9,0,0,0-.73,8.62.54.54,0,0,0,1,.14Z"/><path class="cls-6" d="M129.08,68.77a49.84,49.84,0,0,0,8.6.56.8.8,0,0,0,0-1.59,48.89,48.89,0,0,0-8.45,0c-.56,0-.78,1-.14,1Z"/><path class="cls-6" d="M106.22,33a48.22,48.22,0,0,0,7.89,3.51.8.8,0,0,0,.61-1.45,48.23,48.23,0,0,0-8.09-3,.54.54,0,0,0-.41,1Z"/><path class="cls-6" d="M114.23,55.91l-.14-.13a1.61,1.61,0,0,0-2.27,2.27l.13.14a1.62,1.62,0,0,0,2.29-2.29Z"/></g><path class="cls-8" d="M124.57,47.54c-1.57,1.51-2.17,3.86-.67,5.67a4.4,4.4,0,0,0,5.9.71c4.25-3.28-.18-9.34-4.77-8.09a.76.76,0,0,0,.2,1.49,6.05,6.05,0,0,1,3.85,1.07,2.79,2.79,0,0,1,.23,3.88c-2.5,3.08-6.85-1.45-4.22-4.21a.37.37,0,0,0-.53-.53Z"/><path class="cls-9" d="M22.19,32.61A5.11,5.11,0,0,0,15,37.47c.05,1.35.6,2.9-.27,3.94-.67.81-1.85.88-2.81,1.32a4,4,0,0,0-1.89,5c.45,1,1.33,1.88,1.16,2.95a2.38,2.38,0,0,1-1.26,1.58c-.61.35-1.28.54-1.91.85A6.84,6.84,0,0,0,4.4,59.4a8.77,8.77,0,0,0,3.47,6.52A12.31,12.31,0,0,0,15,68.33a10.44,10.44,0,0,0,7.15-2.15,11.75,11.75,0,0,0,3.11-4.75,23.76,23.76,0,0,0,1.57-10.7c-.32-3.76-1.54-7.4-1.8-11.17a24.7,24.7,0,0,0-.35-3.77,4.8,4.8,0,0,0-2-3.11"/><path class="cls-9" d="M21.61,33.1a11.25,11.25,0,0,1,7.58-6,8.21,8.21,0,0,1,6,.76A5.43,5.43,0,0,1,37.86,33a17.6,17.6,0,0,1-1.28,3.57,3.76,3.76,0,0,0,.23,3.63c.72.88,2,1.1,2.95,1.67a4.42,4.42,0,0,1-.45,7.88,5.31,5.31,0,0,1,4.56,6.49,8.26,8.26,0,0,1-4,4.8,17.64,17.64,0,0,1-8.43,2.6c-3.15.14-6.64-.79-8.36-3.44-1.13-1.74-1.3-3.91-1.42-6-.38-6.24-.64-12.49-.9-18.74a10.83,10.83,0,0,1,.15-3"/><path class="cls-10" d="M32.22,61.3,60.48,71.89l-2.7-11.41,7.35-1.87S73,80.92,67.54,81.52c-9.61,1-24.15-2.76-24.15-2.76Z"/><path class="cls-11" d="M29.75,110S63.89,72.73,86.93,80.86,119.71,127,119.71,127l-18.36-.3S86.86,98,79.78,99.1s-28.92,28.4-28.92,28.4Z"/><path class="cls-12" d="M40.55,87.37,42,109.23c-7.36,9-33-2.65-33-2.65l-.3-9.14L8.09,75.67c.59-8.67,8.64-12.93,8.64-12.93a28.25,28.25,0,0,1,13-2.38c4.78.24,6,2.52,7.92,6.88C39.23,70.77,43.54,76.5,40.55,87.37Z"/><path class="cls-13" d="M13.78,110.7s-3.92,15.95,8,18.46,55.86-3.37,67.3-2.36,44,2.9,44,2.9l2.38-18.94s-50.63-2.43-56.35-1S13.78,110.7,13.78,110.7Z"/><path class="cls-10" d="M19.5,82.82S15.92,103.92,21,103.4c16.61-1.71,26.5-1.94,26.5-1.94l2.75,5.72c.06,1-31.46,10-36.52,7-3.58-2.11-9.27-7.78-6.69-24.74l.61-5.68Z"/><polygon class="cls-14" points="34.49 113.11 34.45 111.7 55.3 108.76 60.84 89.4 83.93 88.84 77.7 109.79 34.49 113.11"/><circle class="cls-15" cx="70.26" cy="98.62" r="1.71" transform="translate(-2.38 1.74) rotate(-1.39)"/><circle class="cls-16" cx="70.26" cy="98.62" r="2.39" transform="translate(-2.38 1.74) rotate(-1.39)"/><path class="cls-12" d="M10.36,68.82s-3.87,3.72-4.74,17.8l15-1.66S23.12,61,10.36,68.82Z"/><path class="cls-17" d="M120.44,26.49s5.32,11.94,6.8,11.31,15.21-9.14,15.21-9.14-5.63-10.69-6.8-11.31S120.44,26.49,120.44,26.49Z"/><path class="cls-18" d="M135.66,17.35a21.49,21.49,0,0,1-1,3.21c-.69,2-1.67,4.65-2.78,7.61l-.08.21-.08.2-.21,0c-3.08-.5-5.84-1-7.84-1.35a20.76,20.76,0,0,1-3.21-.71,20.78,20.78,0,0,1,3.27.35c2,.28,4.79.7,7.87,1.2l-.29.17.08-.21c1.12-3,2.15-5.64,2.93-7.56A21.5,21.5,0,0,1,135.66,17.35Z"/><ellipse class="cls-18" cx="126.67" cy="32.09" rx="4.47" ry="0.26" transform="translate(62.4 145.86) rotate(-74.76)"/><ellipse class="cls-18" cx="137.31" cy="25.61" rx="0.26" ry="4.29" transform="translate(90.53 157.22) rotate(-81)"/><path class="cls-10" d="M17.87,39.31l.34,4.47s-3.8.51-2.72,4,3.68,1.95,3.68,1.95.65,8.88,9.75,6.07c7.24-2.24,6.8-11.62,5.88-19.61a5.35,5.35,0,0,0-6.35-4.63L23,32.6A6.35,6.35,0,0,0,17.87,39.31Z"/><path class="cls-10" d="M18.21,47.49l2.45,13.07A5.24,5.24,0,0,0,27,64.7h0a5.24,5.24,0,0,0,3.95-6l-1.33-7.49Z"/><path class="cls-9" d="M28.28,47.64s.11.12.28.14.41-.15.47-.51a4.61,4.61,0,0,0,0-1.35l-.13-1.74a19.56,19.56,0,0,1,0-4.5,19.57,19.57,0,0,1,.54,4.46l.09,1.74a4.08,4.08,0,0,1-.11,1.49c-.12.45-.59.73-.88.6S28.26,47.64,28.28,47.64Z"/><path class="cls-9" d="M31.23,54.86s-.32.45-1.07.88a6.9,6.9,0,0,1-6.49.14c-.77-.4-1.14-.78-1.1-.83a11.47,11.47,0,0,0,4.36,1.05A11.47,11.47,0,0,0,31.23,54.86Z"/><path class="cls-9" d="M29.45,49.47c.05,0-.07.33-.47.61a2.13,2.13,0,0,1-3.21-1c-.16-.47-.09-.77,0-.77s.14.26.36.61a2.08,2.08,0,0,0,2.7.87C29.18,49.61,29.39,49.42,29.45,49.47Z"/><path class="cls-9" d="M17.93,48.19c0,.06-.22.17-.62.05a.87.87,0,0,1-.55-.52.78.78,0,0,1,0-.5.66.66,0,0,1,.4-.43.64.64,0,0,1,.79.24l-.44.23c-.29-.73-.43-1.29-.32-1.34s.43.43.78,1.14l-.44.23a.18.18,0,0,0-.17,0c-.1,0-.14.14-.11.3a.56.56,0,0,0,.25.34C17.71,48.07,17.93,48.12,17.93,48.19Z"/><ellipse class="cls-9" cx="31.76" cy="41.21" rx="0.26" ry="0.73" transform="translate(-8.31 8.02) rotate(-12.74)"/><ellipse class="cls-9" cx="24.02" cy="41.92" rx="0.26" ry="0.74" transform="translate(-10.35 7.96) rotate(-15.53)"/><path class="cls-9" d="M24.93,39.39c0,.14-.45.14-.91.26s-.81.32-.92.22.17-.56.79-.72S25,39.26,24.93,39.39Z"/><path class="cls-9" d="M32.8,38.14c-.06.14-.51.07-1,.12s-1,.18-1,.06.32-.52,1-.58S32.86,38,32.8,38.14Z"/><path class="cls-9" d="M18.21,43.78c2.54-2.48,3.29-6.6,4-10.08a8.89,8.89,0,0,0,8.3,1.08,13.38,13.38,0,0,0,3,2.58,1.32,1.32,0,0,0,1,.29c.43-.13.62-.62.72-1.05a7.47,7.47,0,0,0-.15-4.21,5.07,5.07,0,0,0-2.83-3,7.4,7.4,0,0,0-4.49.07,25,25,0,0,0-6.34,2.62,10.25,10.25,0,0,0-4.63,4.74c-.82,2.1-.82,6.17,1.17,7.23"/><g class="cls-19"><path class="cls-9" d="M28.58,50a1.09,1.09,0,1,1-2-.42c.4-.6.93-1,1.23-.9S28.46,49.25,28.58,50Z"/></g><g class="cls-20"><path class="cls-9" d="M25.41,45.81c.13.7-.74,1.45-2,1.51S21.3,46.71,21.37,46s.94-1.23,2-1.28S25.29,45.1,25.41,45.81Z"/></g><g class="cls-20"><path class="cls-9" d="M35,45c.14.7-.62,1.45-1.72,1.51s-1.94-.61-1.87-1.32a1.69,1.69,0,0,1,1.73-1.28A1.69,1.69,0,0,1,35,45Z"/></g><path class="cls-21" d="M18.11,55.61a12.64,12.64,0,0,1-.32-3.2,12.64,12.64,0,0,1,0-3.21,8.47,8.47,0,0,1,.53,3.19A8.47,8.47,0,0,1,18.11,55.61Z"/><path class="cls-12" d="M33.21,61.2c-2.46-1,16.45,6,16.45,6L47.74,80.19l-7.19-2.36Z"/><path class="cls-9" d="M22,31.94a3.93,3.93,0,0,0,.53-3.09,2.16,2.16,0,0,0-1.75-1.76,1.92,1.92,0,0,0-1.36.56A2.8,2.8,0,0,0,22,32.39"/><path class="cls-9" d="M135,114.8s6.15-8.82,5.4-5.48-7,18.18-7,18.18Z"/><path class="cls-10" d="M45.72,101.47s8.13-2.55,7.85-1.71-1.66.87-3,2.22c0,0,9.09.1,8.65.85s-6.35.94-6.39,1.06,6.47.29,6.32,1-6.19.52-6.19.52,5.6.6,5.49,1.34-5.28.21-5.28.21,4.32.49,4.21,1.17c-.07.41-12.66.51-12.69.81s1.07-7.45,1.07-7.45"/><path class="cls-10" d="M58.31,61.2s-4.94-6.9-4.06-6.9,1.34,1.3,3,2.19c0,0-2.73-8.63-1.88-8.45s2.86,5.72,3,5.71-1.74-6.21-1-6.29,2.42,5.7,2.42,5.7-1.18-5.49-.43-5.61,1.84,4.93,1.84,4.93-.87-4.25-.2-4.35c.41-.06,4.14,10.47,4.14,10.47s-6.82,2.59-6.82,2.59"/><path class="cls-22" d="M12.79,80.19c.05,0,.24.32.25,1a1.33,1.33,0,0,1-.53,1.06,1,1,0,0,1-.77.18,1.31,1.31,0,0,1-.67-.43c-.32-.38-.53-.6-.86-.64a1,1,0,0,0-.78.22c-.38.35-.37.76-.45.75s-.25-.43.18-1a1.28,1.28,0,0,1,1.11-.45,1.34,1.34,0,0,1,.69.26,3.9,3.9,0,0,1,.5.5c.52.71,1.2,0,1.23-.49S12.7,80.19,12.79,80.19Z"/><path class="cls-22" d="M17.23,76.35s.15-.37.7-.72a1.33,1.33,0,0,1,1.18-.1,1,1,0,0,1,.56.57,1.31,1.31,0,0,1,0,.8,1.42,1.42,0,0,0-.1,1.07,1,1,0,0,0,.6.55c.5.14.84-.08.88,0s-.24.44-1,.37a1.28,1.28,0,0,1-1-.71,1.34,1.34,0,0,1-.14-.73,3.89,3.89,0,0,1,.17-.68c.33-.81-.61-1-1.06-.8S17.28,76.42,17.23,76.35Z"/><path class="cls-22" d="M16.93,66.81s.15-.37.7-.72a1.33,1.33,0,0,1,1.18-.1,1,1,0,0,1,.56.57,1.31,1.31,0,0,1,0,.8,1.42,1.42,0,0,0-.1,1.07,1,1,0,0,0,.6.55c.5.14.84-.08.88,0s-.24.44-1,.37a1.28,1.28,0,0,1-1-.71,1.34,1.34,0,0,1-.14-.73,3.89,3.89,0,0,1,.17-.68c.33-.81-.61-1-1.06-.8S17,66.88,16.93,66.81Z"/><path class="cls-22" d="M26.4,79.24s-.38-.12-.78-.64a1.33,1.33,0,0,1-.2-1.17,1,1,0,0,1,.52-.6,1.31,1.31,0,0,1,.8-.05,1.42,1.42,0,0,0,1.07,0,1,1,0,0,0,.5-.64c.1-.51-.15-.83-.08-.87s.46.2.45.92a1.28,1.28,0,0,1-.63,1,1.34,1.34,0,0,1-.71.2,3.9,3.9,0,0,1-.69-.11c-.83-.26-1,.69-.7,1.13S26.46,79.19,26.4,79.24Z"/><path class="cls-22" d="M32.85,89.23s-.18.36-.75.66a1.33,1.33,0,0,1-1.19,0,1,1,0,0,1-.51-.61,1.31,1.31,0,0,1,.08-.8,1.42,1.42,0,0,0,.17-1.06,1,1,0,0,0-.56-.6c-.49-.18-.84,0-.87-.06s.27-.42,1-.3a1.28,1.28,0,0,1,.9.78,1.34,1.34,0,0,1,.08.74,3.9,3.9,0,0,1-.22.67c-.39.78.53,1.07,1,.87S32.81,89.15,32.85,89.23Z"/><path class="cls-22" d="M40.45,73.48s-.18.36-.75.66a1.33,1.33,0,0,1-1.19,0,1,1,0,0,1-.51-.61,1.31,1.31,0,0,1,.08-.8,1.42,1.42,0,0,0,.17-1.06,1,1,0,0,0-.56-.6c-.49-.18-.84,0-.87-.06s.27-.42,1-.3a1.28,1.28,0,0,1,.9.78,1.34,1.34,0,0,1,.08.74,3.89,3.89,0,0,1-.22.67c-.39.78.53,1.07,1,.87S40.41,73.4,40.45,73.48Z"/><path class="cls-22" d="M45.64,71.08s.4,0,.88.48a1.33,1.33,0,0,1,.41,1.11,1,1,0,0,1-.4.69,1.31,1.31,0,0,1-.78.2,1.42,1.42,0,0,0-1.05.19,1,1,0,0,0-.37.73c0,.52.3.79.24.84s-.49-.11-.61-.82a1.28,1.28,0,0,1,.43-1.11,1.34,1.34,0,0,1,.66-.33,3.89,3.89,0,0,1,.7,0c.87.11.83-.86.48-1.24S45.58,71.15,45.64,71.08Z"/><path class="cls-22" d="M24.66,97.37s-.18.36-.75.66a1.33,1.33,0,0,1-1.19,0,1,1,0,0,1-.51-.61,1.31,1.31,0,0,1,.08-.8,1.42,1.42,0,0,0,.17-1.06,1,1,0,0,0-.56-.6c-.49-.18-.84,0-.87-.06s.27-.42,1-.3a1.28,1.28,0,0,1,.9.78,1.34,1.34,0,0,1,.08.74,3.9,3.9,0,0,1-.22.67c-.39.78.53,1.07,1,.87S24.61,97.3,24.66,97.37Z"/><path class="cls-22" d="M35.91,82.21s-.37-.16-.7-.72a1.33,1.33,0,0,1-.06-1.19,1,1,0,0,1,.58-.54,1.31,1.31,0,0,1,.8,0,1.42,1.42,0,0,0,1.06.13,1,1,0,0,0,.57-.58c.16-.49-.05-.84,0-.87s.43.25.34,1a1.28,1.28,0,0,1-.74.94,1.34,1.34,0,0,1-.73.11,3.9,3.9,0,0,1-.68-.19c-.8-.36-1,.57-.83,1S36,82.17,35.91,82.21Z"/><path class="cls-22" d="M37.93,90.36s-.37-.16-.7-.72a1.33,1.33,0,0,1-.06-1.19,1,1,0,0,1,.58-.54,1.31,1.31,0,0,1,.8,0,1.42,1.42,0,0,0,1.06.13,1,1,0,0,0,.57-.58c.16-.49-.05-.84,0-.87s.43.25.34,1a1.28,1.28,0,0,1-.74.94,1.34,1.34,0,0,1-.73.11,3.89,3.89,0,0,1-.68-.19c-.8-.36-1,.57-.83,1S38,90.31,37.93,90.36Z"/><path class="cls-22" d="M21.65,86.88c-.05,0-.16-.37,0-1a1.33,1.33,0,0,1,.75-.92,1,1,0,0,1,.8,0,1.31,1.31,0,0,1,.56.57c.23.44.39.7.7.81a1,1,0,0,0,.81,0c.45-.26.53-.66.6-.63s.15.48-.4.94a1.28,1.28,0,0,1-1.18.19,1.34,1.34,0,0,1-.62-.41,3.9,3.9,0,0,1-.37-.59c-.35-.8-1.16-.28-1.31.21S21.73,86.9,21.65,86.88Z"/><path class="cls-22" d="M36.35,96.94c-.05,0-.16-.37,0-1a1.33,1.33,0,0,1,.75-.92,1,1,0,0,1,.8,0,1.31,1.31,0,0,1,.56.57c.23.44.39.7.7.81a1,1,0,0,0,.81,0c.45-.26.53-.66.6-.63s.15.48-.4.94a1.28,1.28,0,0,1-1.18.19,1.34,1.34,0,0,1-.62-.41,3.89,3.89,0,0,1-.37-.59c-.35-.8-1.16-.28-1.31.21S36.43,96.95,36.35,96.94Z"/><path class="cls-22" d="M35.92,66.48c-.05,0-.16-.37,0-1a1.33,1.33,0,0,1,.75-.92,1,1,0,0,1,.8,0,1.31,1.31,0,0,1,.56.57c.23.44.39.7.7.81a1,1,0,0,0,.81,0c.45-.26.53-.66.6-.63s.15.48-.4.94a1.28,1.28,0,0,1-1.18.19,1.34,1.34,0,0,1-.62-.41,3.9,3.9,0,0,1-.37-.59c-.35-.8-1.16-.28-1.31.21S36,66.5,35.92,66.48Z"/><path class="cls-22" d="M31.12,101s-.4,0-.93-.37a1.33,1.33,0,0,1-.55-1.05,1,1,0,0,1,.31-.73,1.31,1.31,0,0,1,.75-.29c.49,0,.8-.08,1-.32a1,1,0,0,0,.28-.77c-.06-.52-.39-.74-.34-.8s.5.05.71.74a1.28,1.28,0,0,1-.29,1.16,1.34,1.34,0,0,1-.62.41,3.9,3.9,0,0,1-.69.11c-.88,0-.72,1-.33,1.29S31.17,100.91,31.12,101Z"/><path class="cls-22" d="M13.68,71.08s.35.2.62.79a1.33,1.33,0,0,1-.06,1.19,1,1,0,0,1-.63.48,1.31,1.31,0,0,1-.79-.12c-.45-.21-.73-.33-1-.23a1,1,0,0,0-.63.52c-.21.48,0,.84-.11.87s-.41-.29-.24-1a1.28,1.28,0,0,1,.83-.86,1.34,1.34,0,0,1,.74,0,3.89,3.89,0,0,1,.65.25c.76.44,1.1-.47.93-.95S13.6,71.12,13.68,71.08Z"/><path class="cls-22" d="M30.51,68.07s.35.2.62.79A1.33,1.33,0,0,1,31.08,70a1,1,0,0,1-.63.48,1.31,1.31,0,0,1-.79-.12c-.45-.21-.73-.33-1-.23a1,1,0,0,0-.63.52c-.21.48,0,.84-.11.87s-.41-.29-.24-1a1.28,1.28,0,0,1,.83-.86,1.34,1.34,0,0,1,.74,0,3.89,3.89,0,0,1,.65.25c.76.44,1.1-.47.93-.95S30.44,68.11,30.51,68.07Z"/><path class="cls-9" d="M20.14,85.78a3.94,3.94,0,0,1,0-1c0-.66.12-1.61.22-2.79.21-2.35.54-5.6.93-9.18a10.41,10.41,0,0,0,0-2.56,4.48,4.48,0,0,0-.88-2.12A5.93,5.93,0,0,0,17.1,66a10.06,10.06,0,0,0-2.73-.24,5.66,5.66,0,0,1-1,0,3,3,0,0,1,1-.23,8.77,8.77,0,0,1,2.83.08,6.16,6.16,0,0,1,3.63,2.14,4.9,4.9,0,0,1,1,2.34,10.56,10.56,0,0,1,0,2.69c-.39,3.59-.77,6.82-1.08,9.16-.15,1.17-.28,2.12-.39,2.77A3.94,3.94,0,0,1,20.14,85.78Z"/><ellipse class="cls-9" cx="13.14" cy="85.78" rx="7.7" ry="0.26" transform="translate(-8.96 1.86) rotate(-6.04)"/><path class="cls-9" d="M41.63,83.27a20,20,0,0,0-.29-6.62,20,20,0,0,0-2.91-6,5.08,5.08,0,0,1,1.37,1.45,13,13,0,0,1,2.34,9.2A5.08,5.08,0,0,1,41.63,83.27Z"/><path class="cls-23" d="M81.66,83.52a5.78,5.78,0,0,1,.58-2.43c1-1.51,2.32-1.13,3.63-.47a4.48,4.48,0,0,0,4.05.45c2.29-1,3.31-4.38,1.17-6-.69-.53-1.4.34-1.3,1,.14.92.6,1.94-.2,2.74-1.06,1.06-2.3.17-3.36-.3a4.38,4.38,0,0,0-3.52-.16c-2,.82-3.5,3.56-1.89,5.41a.49.49,0,0,0,.82-.22Z"/><path class="cls-12" d="M87,44.11c.21,1.39,1.66,4.33,3.18,4.73.81.21,1.41-.32,2-.75,1.14-.79,2.27-1.59,3.4-2.4A1,1,0,0,0,96,44.38l-3-4.62a1,1,0,0,0-1.32-.35,40.17,40.17,0,0,0-3.72,2.72c-.78.7.22,1.89,1.09,1.41a38.18,38.18,0,0,0,3.61-2.47l-1.32-.35,3,4.62L94.66,44l-2,1.45c-.34.24-1.73,1.51-2.09,1.43s-1.14-1.36-1.42-1.69a7.79,7.79,0,0,0-1.55-1.53c-.3-.2-.59.13-.55.42Z"/><path class="cls-8" d="M72.86,58.46c-1.57,1.51-2.17,3.86-.67,5.67a4.4,4.4,0,0,0,5.9.71c4.25-3.28-.18-9.34-4.77-8.09a.76.76,0,0,0,.2,1.49,6.05,6.05,0,0,1,3.85,1.07,2.79,2.79,0,0,1,.23,3.88c-2.5,3.08-6.85-1.45-4.22-4.21a.37.37,0,0,0-.53-.53Z"/><path class="cls-24" d="M109,72.42c-.54,2.81-1,5.63-1.43,8.47a.86.86,0,0,0,1,1c2.66-.39,5.31-.74,7.94-1.32a.79.79,0,0,0,.47-1.16c-1.49-2.62-3.38-6.27-6.18-7.7-.71-.36-1.71.42-1.18,1.18a38.51,38.51,0,0,0,3,3.2,22.52,22.52,0,0,1,3,4.11l.68-1.18c-2.75.27-5.46.77-8.18,1.24l1.07.82c.33-2.85.62-5.69.83-8.55a.54.54,0,0,0-1.06-.14Z"/><path class="cls-25" d="M96.78,67.2A50,50,0,0,0,98,58.65c0-.88-1.4-1.1-1.56-.21a49.9,49.9,0,0,0-.73,8.62.54.54,0,0,0,1,.14Z"/><path class="cls-12" d="M127.08,66.77a49.84,49.84,0,0,0,8.6.56.8.8,0,0,0,0-1.59,48.89,48.89,0,0,0-8.45,0c-.56,0-.78,1-.14,1Z"/><path class="cls-24" d="M104.22,31a48.22,48.22,0,0,0,7.89,3.51.8.8,0,0,0,.61-1.45,48.23,48.23,0,0,0-8.09-3,.54.54,0,0,0-.41,1Z"/><path class="cls-9" d="M112.23,53.91l-.14-.13a1.61,1.61,0,0,0-2.27,2.27l.13.14a1.62,1.62,0,0,0,2.29-2.29Z"/><path class="cls-3" d="M50.65,3a10.25,10.25,0,0,0-6.32,6.13A10.54,10.54,0,0,0,45.12,18a11,11,0,0,0,15.23,3.29A11,11,0,0,0,62.22,5.77a11,11,0,0,0-15.58-.41"/></g></g></g></svg>